<svg xmlns="http://www.w3.org/2000/svg" width="2600" height="566" viewBox="0 0 2600 566">
	<path fill="none" stroke="#fff" stroke-miterlimit="10" d="M-20.4 263.9h2653M-20.4 234h2653m-2653-32.6h2653m-2653-27.9h2653M-20.4 149h2653m-2653-22.4h2653m-2653-20.4h2653m-2653-17.7h2653m-2653-18.4h2653m-2653-17.6h2653M0 546.3h2653M0 488.4h2653M0 435.8h2653M0 390.3h2653M0 342.9h2653M0 297.4h2653M1271.3 52.5l-31.7 531.9m-18.7-531.9l-85.3 534.3m38.1-534.3l-148.2 553.8m98.9-552.7L914.2 602.3m160.9-549.8L816.4 586.8m208.3-534.3L699.5 608.3M975.4 51.5L618.1 582M923.9 52.5L502 591.6m372.6-538L402.8 582M824.2 53.6L286.8 594M772.7 52.5L177.9 591.6M723.4 52.5L78.8 591.6m586.7-538l-669 523.5M1319.7 52.5l31.1 527m19.3-527l89.6 546.4m-42.5-546.4l146.5 534.3m-97.2-533.2l203.6 538M1515.9 52.5l260.6 539.1M1566.3 52.5l318 545.9M1615.6 51.5l360.2 536.9M1667 52.5L2090.9 594M1716.4 53.6L2190 586.8M1766.7 53.6L2289.2 582m-471-529.5l579.8 527m-530.5-527L2494.7 582M1925.4 53.6l668.5 521.1"/>
</svg>
