<svg xmlns="http://www.w3.org/2000/svg" width="36" height="35" viewBox="0 0 36 35">
	<path d="M30.956 12.355c-.38-4.262-3.336-7.354-7.037-7.354-2.464 0-4.722 1.353-5.992 3.522C16.669 6.326 14.504 5 12.079 5c-3.7 0-6.656 3.092-7.036 7.355-.03.188-.153 1.179.221 2.794.54 2.331 1.785 4.451 3.6 6.13l9.057 8.387 9.213-8.387c1.816-1.679 3.06-3.798 3.6-6.13.374-1.615.25-2.606.222-2.794m-1.195 2.56c-.492 2.13-1.633 4.069-3.296 5.605l-8.538 7.773-8.391-7.77c-1.665-1.54-2.806-3.48-3.298-5.608-.354-1.529-.208-2.393-.208-2.398l.008-.052c.325-3.734 2.865-6.445 6.041-6.445 2.344 0 4.407 1.47 5.386 3.835l.46 1.113.46-1.113c.964-2.329 3.136-3.834 5.535-3.834 3.176 0 5.717 2.71 6.048 6.493.001.008.146.873-.207 2.402"/>
</svg>
