<svg xmlns="http://www.w3.org/2000/svg" width="47" height="47" stroke="#000" viewBox="0 0 47 47">
	<path fill="none" stroke="inherit" stroke-miterlimit="50" stroke-width="1.5" d="M6.2 23.5C6.2 13.835 14.035 6 23.7 6s17.5 7.835 17.5 17.5S33.365 41 23.7 41 6.2 33.165 6.2 23.5z"/>
	<path stroke="none" d="M24.7 18.4c0 .6-.5 1-1 1-.6 0-1-.5-1-1 0-.6.5-1 1-1s1 .5 1 1zm-.2 9.8c0 .9.3 1.1 1.2 1.1v.3c-.4 0-1.2-.1-1.9-.1s-1.6 0-1.9.1v-.3c.9 0 1.2-.3 1.2-1.1v-5c0-1-.3-1.4-1.2-1.4v-.3h1c.6 0 1.2-.1 1.7-.2v6.9z"/>
</svg>
