<svg xmlns="http://www.w3.org/2000/svg" width="163" height="163" viewBox="0 0 163 163">
	<path d="M86.086 23.969c-.35 1.591 1.394 1.389 1.294 1.846l-.026.12L82 24.766l.026-.12c.097-.437 1.77.575 2.162-1.216l1.147-5.213c.393-1.791-1.55-1.568-1.454-2.007l.026-.12 5.354 1.168-.026.12c-.101.458-1.601-.453-1.951 1.139l-.499 2.268 4.265.93.472-2.148c.385-1.751-1.319-1.518-1.222-1.956l.026-.12 5.353 1.17-.026.119c-.1.457-1.832-.505-2.182 1.086l-1.198 5.452c-.35 1.593 1.626 1.44 1.527 1.898l-.028.119-5.353-1.167.026-.12c.097-.439 1.547.484 1.93-1.267l.605-2.747-4.264-.931zm18.694 1.548l-1.742 4.065c-.402.936-.39 1.207.758 1.718l-.058.197a4.892 4.892 0 0 1-1.626-.36c-.872-.37-1.409-.865-1.018-1.895l-.088-.036c-1.555.555-2.743.316-3.987-.214-1.351-.574-2.328-1.787-1.749-3.136.963-2.248 3.885-1.78 6.177-.806.413.178.799.362 1.152.559l.523-1.219c.434-1.01.703-2.36-1.065-3.112-.873-.371-1.654-.415-2.218-.301.317.4.371 1 .17 1.468-.225.525-.754.853-1.538.519-.568-.24-.749-.783-.548-1.252.305-.711 1.781-1.744 4.465-.602 2.837 1.206 3.003 2.984 2.392 4.407m-3.554 3.322l1.28-2.986c-.189-.102-.53-.27-.793-.38-2.449-1.043-3.848-.373-4.443 1.016-.5 1.165-.196 2.026.81 2.453 1.005.43 2.302.359 3.146-.103m11.183 3.318c-.89-.071-1.856-.289-2.886-.964-1.309-.858-2.238-2.246-1.101-3.963l.596-.902c.9-1.362-1.001-1.925-.742-2.316l.067-.102 4.56 2.986-.068.102c-.247.375-1.25-.99-2.24.51l-.707 1.07c-.72 1.089-.61 1.87.5 2.595.772.507 1.488.758 2.26.75l1.485-2.246c.899-1.362-.763-1.768-.504-2.159l.067-.102 4.559 2.988-.067.1c-.247.376-1.465-1.18-2.477.353l-2.948 4.458c-1.012 1.53.903 2.03.655 2.403l-.067.103-4.56-2.987.068-.102c.258-.39 1.292.967 2.192-.393l1.405-2.126zm11.968 7.777l-3.06 3.201c-.704.738-.786.997.11 1.875l-.124.162a4.91 4.91 0 0 1-1.398-.901c-.688-.65-1.016-1.3-.29-2.13l-.068-.064c-1.653-.02-2.682-.657-3.661-1.583-1.065-1.009-1.555-2.484-.54-3.547 1.692-1.771 4.264-.318 6.07 1.39.326.311.622.618.886.925l.916-.96c.762-.796 1.486-1.966.093-3.284-.688-.65-1.403-.965-1.972-1.055.157.488-.004 1.067-.356 1.437-.395.41-1.005.536-1.624-.048-.447-.425-.426-.994-.074-1.363.536-.561 2.282-1.016 4.396.984 2.234 2.116 1.768 3.84.696 4.96m-4.5 1.866l2.241-2.345a10.63 10.63 0 0 0-.608-.633c-1.925-1.822-3.468-1.681-4.51-.59-.875.916-.893 1.825-.103 2.575.792.747 2.028 1.132 2.98.993m11.857 3.075l-5.553 4.169c-1.191.896.093 2.15-.152 2.336l-.098.073-3.371-4.45.114-.085c.245-.186 1.094 1.544 2.417.55l5.487-4.12-.286-.377c-.9-1.188-1.877-1.43-3.988-.968-.204.033-.282.032-.339-.042-.043-.058-.056-.108-.085-.145l2.967-1.665c.542.985 1.518 2.41 2.547 3.768 1.156 1.527 2.124 2.635 2.952 3.492-.812.788-1.625 1.575-2.423 2.382l-.088-.084c-.1-.099-.078-.205.025-.371 1.146-1.838.989-2.992.16-4.085zm-4.225 8.443c.382-.197.72 1.65 2.246.863l4.87-2.508c1.526-.787.207-2.128.589-2.326l.11-.056 2.659 5.118-.109.056c-.418.216-.854-1.82-2.253-1.1l-1.418.732c.39.572.72 1.118.97 1.6 1.886 3.629.41 5.135-.389 5.546-1.18.608-3.046.48-4.648-2.604l-2.736-5.266zm2.969 2.697c-.727.375-.998.783-.52 1.705l.141.273c.872 1.678 2.464 2 3.679 1.371 1.143-.59 1.894-2.068.947-3.892a9.616 9.616 0 0 0-.765-1.254z"/>
</svg>
