<svg xmlns="http://www.w3.org/2000/svg" width="163" height="163" viewBox="0 0 163 163">
	<path d="M88 20.274l.02-.1c.071-.368 1.361.334 1.632-1.051l.859-4.403c.274-1.401-1.186-1.236-1.114-1.603L89.42 13l5.827 1.138c2.167.424 2.682 1.39 2.522 2.207-.159.817-1.251 1.366-2.809 1.114l-.01.05c2.187.427 2.815 1.641 2.648 2.491-.178.917-1.236 1.906-3.733 1.418zm3.79-.473c-.117.601.03.976.805 1.127l.368.071c1.18.232 2.075-.234 2.296-1.369.235-1.201-.512-2.005-1.635-2.225l-1.317-.256zm.57-2.919l1.122.219c.91.177 1.879-.153 2.077-1.17.163-.834-.4-1.551-1.484-1.763l-1.142-.223zm13.955 7.177c-.586 1.209.725 1.354.554 1.705l-.045.092-4.434-2.151.044-.092c.171-.353 1.243.735 1.904-.627l1.921-3.963c.66-1.363-.832-1.539-.669-1.875l.052-.108 4.434 2.153-.051.106c-.171.353-1.113-.596-1.707.628l-.824 1.698 2.946 1.429.785-1.622c.646-1.331-.661-1.436-.491-1.788l.052-.107 4.434 2.151-.051.107c-.171.352-1.291-.682-1.885.541l-1.995 4.118c-.594 1.224.912 1.462.742 1.815l-.045.092-4.434-2.153.044-.09c.163-.337 1.063.61 1.701-.707l1.016-2.096-2.944-1.429zm15.37 5.451l-1.97 2.73c-.488.676-.496.922.277 1.501-.02.027-.083.15-.103.177-.377-.083-1.036-.35-1.516-.697-.688-.496-1.144-1.078-.67-1.868l-.064-.046c-1.405.16-2.378-.31-3.273-.958-1.039-.75-1.618-1.903-.892-2.909 1.195-1.654 3.552-.707 5.28.54.286.208.58.442.832.665l.647-.896c.557-.772.961-1.802-.254-2.679-.544-.393-1.075-.566-1.493-.596.15.401.066.887-.173 1.218-.338.468-.985.588-1.625.126-.479-.346-.548-.856-.279-1.228.418-.58 1.842-1.103 4.048.49 2.4 1.732 2.054 3.287 1.228 4.43m-3.82 1.52l1.572-2.179a5.654 5.654 0 0 0-.428-.349c-1.679-1.213-2.834-.894-3.5.03-.588.812-.527 1.57.145 2.055.64.462 1.523.618 2.21.443m8.965 5.1a5.147 5.147 0 0 1-2.353-1.388c-.956-.967-1.46-2.272-.225-3.492l.64-.634c1.015-1.004-.321-1.677-.043-1.953l.085-.083 3.409 3.447-.085.083c-.24.266-.797-.902-1.763.054l-.86.85c-.736.728-.84 1.302-.145 2.002.498.505 1.035.805 1.624.917l1.618-1.602c.907-.896-.24-1.453.025-1.716l.085-.084 3.437 3.476-.084.084c-.28.274-.953-1.108-2.017-.057l-3.13 3.096c-1.076 1.063.312 1.742.034 2.017l-.072.072-3.48-3.518.073-.071c.254-.251.85.933 1.78.012l1.476-1.458a.247.247 0 0 1-.03-.054m9.01 9.315l-2.747 1.94c-.68.483-.767.713-.223 1.512-.028.019-.128.114-.155.134a4.725 4.725 0 0 1-1.208-1.152c-.49-.692-.732-1.39-.029-1.983l-.045-.065c-1.38-.304-2.147-1.066-2.784-1.968-.739-1.046-.913-2.325.1-3.04 1.665-1.177 3.587.483 4.815 2.223.205.289.407.606.572.899l.903-.637c.777-.55 1.492-1.394.627-2.617-.387-.548-.832-.884-1.217-1.047.01.428-.226.859-.559 1.095-.472.333-1.122.238-1.576-.407-.342-.483-.24-.99.133-1.253.583-.413 2.1-.446 3.67 1.778 1.705 2.415.875 3.774-.277 4.588m-4.103.197l2.195-1.55a5.786 5.786 0 0 0-.29-.471c-1.196-1.691-2.393-1.763-3.323-1.106-.82.578-1.009 1.315-.53 1.99.454.646 1.241 1.08 1.948 1.137m9.248 4.277c-2.566 1.055-6.538 3.309-7.926.409-.273-.569-.295-1.324.257-1.589.368-.176.876.018 1.122.534.324.676.09 1.291-.509 1.731 1.236.809 3.076.363 5.697-.893 1.426-.683.225-2.01.577-2.179l.107-.052 3.587 7.489-.107.051c-.384.185-.578-1.363-1.82-.769l-4.122 1.977c-1.257.603-.233 1.599-.6 1.775l-.093.044-2.147-4.482.092-.044c.353-.169.498 1.314 1.846.667l5.104-2.445zm5.118 11.875c.864 3.116-.418 5.108-2.45 5.67-2.048.569-4.292-.588-5.12-3.571-.848-3.06.467-5.06 2.532-5.632 2.08-.577 4.233.626 5.038 3.533m-7.346 2.077c.48 1.727 2.533 1.75 4.171 1.297 1.705-.472 3.435-1.484 2.935-3.286-.474-1.709-2.55-1.747-4.139-1.307-1.704.472-3.467 1.491-2.967 3.296"/>
</svg>
