<svg xmlns="http://www.w3.org/2000/svg" width="163" height="163" viewBox="0 0 163 163">
	<path d="M103.339 25.31c.368.143 1.054.392 1.606.497l.012.024c-.438.96-.844 1.952-1.269 2.935l-.093-.035c-.128-.05-.158-.135-.121-.34.471-2.189.134-2.684-2.071-3.544l-3.346-1.302c-2.077-.809-2.515-.396-3.609 1.221-.184.257-.246.305-.374.256L94 24.993l1.049-3.022.024-.008a8.737 8.737 0 0 0 1.336.648c1.35-.423 2.757-1.973 3.669-4.319.659-1.695-1.161-1.802-1.02-2.166l.049-.126 8.235 3.207-.042.111c-.143.363-1.397-.599-1.89.668zm-2.831-7.197c-.666 1.712-1.829 3.721-3.676 4.662l4.447 1.733 2.485-6.385-2.831-1.103zm13.759 8.214l-1.727 2.888c-.427.715-.414.961.407 1.47-.018.03-.07.157-.087.186a4.74 4.74 0 0 1-1.571-.56c-.73-.436-1.233-.975-.83-1.804l-.068-.039c-1.385.281-2.396-.105-3.344-.67-1.101-.658-1.778-1.755-1.14-2.819 1.046-1.75 3.476-1.012 5.305.08.304.18.618.388.888.588l.566-.948c.488-.816.8-1.878-.486-2.645-.574-.344-1.12-.47-1.538-.464.183.388.142.878-.067 1.228-.296.495-.93.671-1.607.267-.508-.303-.621-.806-.386-1.2.366-.612 1.74-1.257 4.076.137 2.54 1.517 2.332 3.094 1.609 4.305m-3.668 1.844l1.383-2.305a5.449 5.449 0 0 0-.459-.31c-1.783-1.064-2.91-.645-3.496.332-.517.862-.39 1.61.324 2.033.68.406 1.578.485 2.248.25m10.175.161c-1.923 2.003-4.648 5.669-7.089 3.579-.479-.411-.805-1.092-.406-1.558.266-.31.81-.337 1.242.036.57.486.604 1.143.233 1.788 1.456.239 2.962-.912 4.853-3.12 1.03-1.201-.605-1.93-.35-2.227l.077-.09 6.305 5.399-.078.091c-.277.323-1.079-1.014-1.976.032l-2.975 3.475c-.906 1.059.433 1.556.166 1.866l-.065.078-3.774-3.232.066-.077c.254-.297.986 1 1.96-.136l3.682-4.301zm9.061 13.951l-3.913-4.699c-1.83 1.523-2.294 3.013-.893 4.695.656.789 1.613 1.352 2.562 1.615l-.003.208c-1.223-.138-2.41-.793-3.381-1.959-1.97-2.365-1.787-4.724-.061-6.16 1.698-1.414 4.169-1.135 5.96 1.018 1.705 2.046 1.307 4.2-.053 5.331zm-3.704-4.847l2.673 3.017.314-.262c.826-.686 1.688-1.992.778-3.083-.824-.985-2.314-.697-3.765.328zm8.987 13.474l-3.124-5.255c-2.046 1.215-2.737 2.614-1.619 4.496.525.88 1.38 1.588 2.275 1.998l-.035.205c-1.184-.33-2.254-1.163-3.03-2.468-1.571-2.646-1.022-4.947.907-6.091 1.898-1.13 4.292-.464 5.723 1.944 1.36 2.289.63 4.353-.89 5.255zm-2.895-5.368l2.158 3.398.349-.208c.921-.547 1.975-1.701 1.25-2.923-.656-1.101-2.167-1.052-3.757-.267z"/>
</svg>
