<svg xmlns="http://www.w3.org/2000/svg" width="139" height="27" viewBox="0 0 139 27">
	<path d="M5 5.49v14.318L19.33 5.49zm1.28 15.625h14.326V6.8zM28.928 5.51H23.86v15.6h3.13v-5.828h2.002c3.656 0 5.753-1.754 5.753-4.81v-.087c0-3.098-2.12-4.875-5.817-4.875zm2.755 4.961c0 1.619-.953 2.475-2.756 2.475h-1.94V7.998h1.94c1.88 0 2.756.76 2.756 2.387zm10.684 1.166h-2.559V8.04H46.6V5.51h-9.9v15.6h5.603c3.575 0 5.625-1.73 5.625-4.746v-.086c0-2.993-1.975-4.64-5.56-4.64zm-2.559 2.338h2.302c1.881 0 2.796.744 2.796 2.275v.086c0 1.525-.905 2.298-2.688 2.298h-2.41zm15.847-1.016L62.12 5.49h-3.435l-5.666 6.72v-6.7H49.89v15.6h3.13v-6.905l5.685 6.905h3.728zm7.925.451v-.174c0-4.639 3.107-7.986 7.351-7.986 3.26 0 6.017 1.728 6.345 5.12h-1.882c-.393-2.385-1.772-3.61-4.44-3.61-3.239 0-5.405 2.516-5.405 6.454v.175c0 3.982 2.013 6.388 5.382 6.388 2.56 0 4.332-1.29 4.726-3.828h1.772c-.547 3.61-3.04 5.382-6.542 5.382-4.529 0-7.307-3.107-7.307-7.92m19.951-6.368H78.98V5.49h11.005v1.553h-4.551v14.09h-1.903zm9.059 14.09V5.49h1.903v13.018l8.445-13.018h1.904v15.643h-1.904V8.115l-8.445 13.018zm15.614.175c-.591 0-.854-.175-.854-.175v-1.838s.263.088.854.088c1.247 0 1.706-1.291 1.925-3.895.328-4.332.372-9.998.372-9.998h9.408v15.643h-1.904V7.087h-5.754c-.044 2.013-.153 5.557-.35 8.555-.175 2.975-.963 5.666-3.697 5.666M123.85 5.49h1.904v6.367h2.538c2.975 0 5.47 1.203 5.47 4.529v.087c0 3.26-2.473 4.66-5.47 4.66h-4.442zm4.577 14.1c2.126 0 3.44-.916 3.44-3.12v-.087c0-2.008-1.204-3.012-3.44-3.012h-2.673v6.22z"/>
</svg>
