<svg xmlns="http://www.w3.org/2000/svg" width="170" height="21" viewBox="0 0 170 21">
	<path d="M146.043 7.064v2.409H165v2.051h-18.957v2.408H165v2.047h-21.369V5.019H165v2.045zM138.372 5h2.407v10.957h-2.407v-4.09h-14.647v4.09h-2.408V5h2.408v4.456h14.647zm-39.74 2.439a2.437 2.437 0 0 1 2.446-2.421h17.429v2.408h-17.053a.39.39 0 0 0-.394.339v5.5c.013.166.15.293.315.297h17.132v2.408l-17.458.018h-.013a2.42 2.42 0 0 1-2.404-2.434zm-5.307 2.032a2.443 2.443 0 0 1 2.435 2.434v1.649a2.43 2.43 0 0 1-2.434 2.423H75.452V13.93h17.483l.02.001a.381.381 0 0 0 .384-.378v-1.656a.388.388 0 0 0-.403-.373l-15.38.006a2.435 2.435 0 0 1-2.434-2.435V7.452a2.408 2.408 0 0 1 2.379-2.433h17.897v2.047H77.93a.388.388 0 0 0-.389.388v1.642l.001.019a.384.384 0 0 0 .405.36l15.378-.007zm-21 6.478h-2.423v-.432a2.433 2.433 0 0 0-2.433-2.434H54.044v2.882h-2.406V5.01h18.243a2.417 2.417 0 0 1 2.42 2.415v2.377a2.419 2.419 0 0 1-2.328 2.431 4.055 4.055 0 0 1 2.351 3.688zm-2.43-8.107a.42.42 0 0 0-.411-.416l-15.44-.005v3.252h15.484a.395.395 0 0 0 .365-.402zm-21.167 5.705a2.412 2.412 0 0 1-2.4 2.424H30.896a2.428 2.428 0 0 1-2.446-2.412v-6.12a2.436 2.436 0 0 1 2.447-2.425h15.45a2.408 2.408 0 0 1 2.381 2.416zm-2.392-5.706a.427.427 0 0 0-.422-.413H31.269a.389.389 0 0 0-.394.339v5.491c.013.166.15.294.315.297h14.761a.41.41 0 0 0 .389-.4zm-20.718-.41v3.23a2.42 2.42 0 0 1-2.416 2.423H7.408v2.885H5V5.012h18.19a2.42 2.42 0 0 1 2.431 2.407v.011zm-2.413.414a.42.42 0 0 0-.41-.417L7.408 7.423v3.262h15.434a.39.39 0 0 0 .365-.403z"/>
</svg>
