<svg xmlns="http://www.w3.org/2000/svg" width="36" height="32" viewBox="0 0 36 32">
	<path d="M27.1 15.526l3.473-3.473a.476.476 0 1 0-.674-.673l-3.473 3.473-3.473-3.473a.476.476 0 1 0-.673.673l3.473 3.473-3.473 3.473a.476.476 0 1 0 .673.674l3.473-3.473 3.473 3.473a.477.477 0 1 0 .674-.674zM18.527 5.241a1.442 1.442 0 0 0-1.472.021.444.444 0 0 0-.061.045l-6.453 5.459H5.476a.476.476 0 0 0-.476.476v9.049a.474.474 0 0 0 .476.476l5.053-.003 6.45 5.925a.46.46 0 0 0 .076.057c.235.142.494.212.754.212a1.487 1.487 0 0 0 1.478-1.504v-18.9a1.49 1.49 0 0 0-.76-1.313zm-.192 20.224a.547.547 0 0 1-.276.483.5.5 0 0 1-.476.013l-6.392-5.875v-2.17a.476.476 0 1 0-.952 0v1.903l-4.287.002v-8.1h4.287v1.906a.476.476 0 1 0 .952 0v-2.161l6.384-5.403a.498.498 0 0 1 .484.008.546.546 0 0 1 .276.483z"/>
</svg>
