<svg xmlns="http://www.w3.org/2000/svg" width="198" height="198" viewBox="0 0 198 198">
	<path d="M129.7 9.6l-1.8.7-3.5 14.5 1.3 1.4v.1l-5.3-1.3v-.1l1.8-.7 1.7-7-9.7-2.4-1.7 7 1.3 1.4v.1l-5.3-1.3v-.1l1.8-.7 3.5-14.5-1.3-1.4v-.1l5.3 1.3v.1l-1.8.7-1.5 6.4 9.7 2.4 1.5-6.4-1.3-1.4v-.1l5.3 1.4zm5.7 13.7l5.2 2.8.8-7.8zm6.7 10.3l.9 1.7v.1l-5-2.7v-.1l1.9-.2.5-5.1-6.1-3.2-3.9 3.3.9 1.7v.1l-4-2.1V27l1.9-.2 13.4-11.1 1.1.6zm12.505 10.3l.5 1.9v.1l-4.4-3.9v-.1l2.2.4 4-4.6c-1.8.4-3.6-.2-5.3-1.7-1.5-1.2-2.2-2.6-2.4-4.2-.1-1.5.3-3 1.5-4.3l3.4-4-.5-1.9v-.1l4.2 3.6v.1l-1.9-.2-3.6 4.1c-.8 1-1.3 2-1.3 3.1s.5 2.1 1.6 3c.6.5 1.3.9 1.9 1.2.6.2 1.2.3 1.6.3.4 0 .9-.2 1.3-.4s.8-.4 1-.6l.6-.6 3.7-4.3-.5-1.9v-.1l4.1 3.5v.1l-1.9-.2zm10.595 3.4l3.5 4.8 4.2-6.6zm1.5 12.2v1.9h-.1l-3.3-4.5h.1l1.8.7 2.7-4.4-4-5.6-5 1.2v1.9h-.1l-2.6-3.7h.1l1.8.7 16.9-4.1.7 1zm17.6 9.7l1.9-2.8-2-4.4-13.5 6.1-.4 1.9h-.1l-2.2-4.9h.1l1.6 1 13.6-6.1-2-4.4-3.3-.5V55l3.7-1.7 6.4 14.1zm-1.6 10l.5-.1c.8 1.5 1.3 2.8 1.4 4 .2 1.2.1 2.2-.3 3-.3.8-.8 1.5-1.4 2-.6.5-1.2.8-1.9.9l-.3.1c-.6.1-1.2.1-1.8 0-.6-.1-1.2-.4-1.9-.8-.6-.4-1.2-1-1.7-1.8s-.9-1.8-1.1-3l-1.5-7h.1l1.4 1.3 14.6-3.1.7-1.8h.1l1.2 5.8h-.1l-1.5-1.8-13.6 2.9c-.5.1-.8.4-.6 1l.4 2.2c.2.9.5 1.6.9 2.2.4.6.8 1 1.3 1.2.5.2 1 .3 1.4.4.4.1.8 0 1.2-.1l.4-.1c.5-.1 1-.3 1.4-.6.4-.3.8-.8 1.1-1.4.3-.6.5-1.4.4-2.3 0-.9-.3-1.9-.8-3.1zm5.6 50.9l-.7-1.8-14.5-3.6-1.4 1.3h-.1l1.3-5.2h.1l.7 1.8 7 1.7 2.4-9.7-7-1.7-1.4 1.3h-.1l1.3-5.2h.1l.7 1.8 14.5 3.6 1.4-1.3h.1l-1.3 5.2h-.1l-.7-1.8-6.4-1.6-2.4 9.7 6.4 1.6 1.4-1.3h.1l-1.4 5.2zm-13.7 5.7l-2.8 5.2 7.8.8zm-10.3 6.7l-1.7.9h-.1l2.6-4.9h.1l.2 1.9 5.1.5 3.3-6.1-3.3-3.9-1.7.9h-.1l2.1-4h.1l.2 1.9 11.1 13.4-.6 1.1zM154 154.902l-1.9.5h-.1l3.7-4.4h.1l-.4 2.2 4.6 4c-.4-1.8.2-3.6 1.7-5.3 1.2-1.4 2.6-2.2 4.2-2.4 1.5-.1 3 .4 4.3 1.5l4 3.4 1.9-.5h.1l-3.6 4.2h-.1l.2-1.9-4.1-3.6c-1-.8-2-1.3-3.1-1.3s-2.1.5-3 1.6c-.5.6-.9 1.3-1.2 1.9-.2.6-.3 1.2-.3 1.6 0 .4.2.9.4 1.3s.4.8.6 1l.6.6 4.3 3.7 1.9-.5h.1l-3.5 4.1h-.1l.2-1.9zm-3.4 10.598l-4.8 3.5 6.6 4.2zm-12.2 1.4h-1.9v-.1l4.5-3.2v.1l-.7 1.8 4.4 2.7 5.6-4-1.2-5h-1.9v-.1l3.7-2.6v.1l-.7 1.8 4 16.9-1 .7zm-9.8 17.7l2.8 1.9 4.4-2-6.1-13.7-1.9-.3v-.1l4.9-2.2v.1l-1 1.6 6.1 13.7 4.4-2 .4-3.4h.1l1.7 3.7-14.1 6.3zm-9.989-1.6l.1.5c-1.5.8-2.802 1.3-4.002 1.4-1.201.2-2.202.1-3.002-.3-.8-.4-1.501-.8-2.001-1.4-.5-.6-.8-1.2-.9-1.9l-.101-.3c-.1-.6-.1-1.2 0-1.8.1-.6.4-1.2.8-1.8.4-.6 1.001-1.2 1.802-1.7.8-.5 1.9-.9 3.001-1.1l7.005-1.5v.1l-1.301 1.4 3.102 14.6 1.801.7v.1l-5.804 1.2v-.1l1.902-1.5-3.002-13.8c-.1-.5-.4-.8-1-.6l-2.202.5c-.9.2-1.601.5-2.202.9-.6.4-1 .8-1.2 1.3-.2.5-.3 1-.4 1.4 0 .4 0 .8.1 1.2l.1.4c.1.5.3 1 .6 1.4.3.4.8.8 1.4 1.1.601.3 1.402.5 2.302.4.8-.1 1.901-.3 3.102-.8zM67.7 188.4l1.8-.7 3.6-14.5-1.3-1.4v-.1L77 173v.1l-1.8.7-1.7 7 9.7 2.4 1.7-7-1.3-1.4v-.1l5.2 1.3v.1l-1.8.6-3.6 14.5 1.3 1.4v.1l-5.2-1.3v-.1l1.8-.7 1.6-6.3-9.7-2.4-1.6 6.3 1.3 1.4v.1l-5.2-1.3zm-5.6-13.6l-5.2-2.8-.8 7.8zm-6.7-10.3l-.9-1.7v-.1l4.9 2.7v.1l-1.9.2-.5 5.1 6.1 3.3 4-3.3-.9-1.7v-.1l4 2.1v.1l-1.9.2-13.4 11.1-1.1-.6zM43 154.1l-.5-1.9v-.1l4.4 3.8v.1l-2.2-.5-4 4.6c1.8-.4 3.6.2 5.3 1.7 1.4 1.2 2.2 2.6 2.4 4.2.1 1.5-.4 3-1.5 4.3l-3.4 4 .5 1.9v.1l-4.2-3.6v-.1l1.9.2 3.6-4.1c.8-1 1.3-2 1.3-3.1s-.5-2.1-1.6-3c-.6-.5-1.3-.9-1.9-1.2-.6-.3-1.2-.3-1.6-.3-.5 0-.9.2-1.3.4s-.8.4-1 .6l-.6.6-3.7 4.3.5 1.9v.1l-4.1-3.5v-.1l1.9.2zm-10.6-3.5l-3.4-4.8-4.2 6.6zm-1.5-12.2v-1.9h.1l3.2 4.6h-.1l-1.8-.7-2.7 4.3 4 5.6 5-1.2v-1.9h.1l2.6 3.7h-.1l-1.8-.7-16.9 4-.7-1zm-17.6-9.8l-2 2.8 2 4.4 13.7-6.1.4-1.9h.1l2.2 4.9h-.1l-1.6-1-13.7 6.1 2 4.4 3.4.4v.1l-3.7 1.7-6.3-14.2zm1.6-9.995l-.5.1c-.8-1.5-1.3-2.8-1.4-4-.1-1.2-.1-2.2.3-3 .4-.8.8-1.5 1.4-2 .6-.5 1.2-.8 1.9-.9l.3-.1c.6-.1 1.2-.1 1.8 0 .6.1 1.2.4 1.8.8.6.4 1.2 1 1.7 1.8s.9 1.9 1.1 3l1.5 7h-.1l-1.4-1.3-14.6 3-.7 1.8h-.1l-1.2-5.8h.1l1.5 1.9 13.8-2.9c.5-.1.8-.4.7-1l-.5-2.2c-.2-.9-.5-1.6-.9-2.2-.4-.6-.8-1-1.3-1.2-.5-.2-1-.3-1.4-.4-.4 0-.8 0-1.2.1l-.4.1c-.5.1-1 .3-1.4.6-.4.3-.8.8-1.1 1.4-.3.6-.5 1.4-.4 2.3 0 .9.3 1.9.7 3.1zM9.6 67.7l.7 1.8 14.5 3.6 1.4-1.3h.1L25 77.1h-.1l-.7-1.8-7-1.8-2.4 9.7 7 1.8 1.4-1.3h.1L22 88.9h-.1l-.7-1.8-14.5-3.6-1.4 1.3h-.1l1.3-5.2h.1l.7 1.8 6.3 1.6 2.4-9.7-6.3-1.6L8.3 73h-.1l1.4-5.3zm13.7-5.6l2.8-5.2-7.8-.8zm10.3-6.6l1.7-.9h.1l-2.7 4.9h-.1l-.2-1.9-5.1-.6-3.3 6 3.2 4 1.7-.9h.1l-2.2 4h-.1l-.2-1.9-11-13.5.6-1.1zM44 43.1l1.9-.5h.1l-3.8 4.3h-.1l.5-2.2-4.6-4c.4 1.8-.2 3.6-1.7 5.3-1.2 1.4-2.6 2.2-4.2 2.4-1.5.1-3-.4-4.3-1.5l-4-3.4-1.8.5h-.1l3.6-4.2h.1l-.2 1.9 4.1 3.6c1 .9 2 1.3 3.1 1.3s2.1-.5 3-1.6c.5-.6.9-1.3 1.2-1.9.2-.6.3-1.2.3-1.6 0-.5-.1-.9-.3-1.3-.2-.4-.4-.8-.6-1l-.6-.6-4.3-3.7-1.9.5h-.1l3.5-4.1h.1l-.2 1.9zm3.5-10.7l4.8-3.4-6.6-4.2zm12.2-1.3h1.9v.1L57 34.4v-.1l.7-1.8-4.3-2.8-5.6 4 1.2 5h1.9v.1l-3.7 2.6v-.1l.7-1.8-4-16.9 1-.7zm9.8-17.7l-2.8-2-4.4 2 6 13.7 1.9.4v.1l-4.9 2.2v-.1l1-1.6-6-13.7-4.4 2-.4 3.4h-.1l-1.7-3.7 14.2-6.3zm10 1.7l-.1-.5c1.5-.8 2.8-1.2 4-1.4 1.2-.2 2.2-.1 3 .3.8.4 1.5.8 2 1.4.5.6.8 1.2.9 1.9l.1.3c.1.6.1 1.2 0 1.8-.1.6-.4 1.2-.8 1.8-.4.6-1 1.2-1.8 1.7s-1.9.9-3 1.1l-7 1.4v-.1l1.4-1.4-3-14.6-1.8-.7V8l5.8-1.2v.1l-1.9 1.5 2.9 13.8c.1.5.4.8 1 .7l2.2-.5c.9-.2 1.6-.5 2.2-.9.6-.4 1-.8 1.2-1.3.2-.5.3-1 .4-1.4 0-.4 0-.8-.1-1.2l-.1-.4c-.1-.5-.3-1-.6-1.4-.3-.4-.8-.8-1.4-1.1-.6-.3-1.4-.5-2.2-.4-.8.1-2.1.4-3.3.8z"/>
</svg>
