<svg xmlns="http://www.w3.org/2000/svg" width="32" height="27" viewBox="0 0 32 27">
	<path d="M25.88 6.914a.47.47 0 0 0-.428-.106l-.713.247a4.845 4.845 0 0 0 .891-1.522c.071-.177.036-.32-.071-.425a.381.381 0 0 0-.428-.071c-.998.425-1.853.779-2.566.991 0 .036-.036 0-.072 0-.57-.318-1.96-1.027-2.958-1.027-2.53.036-4.562 2.16-4.562 4.746v.141c-3.707-.708-5.74-1.77-7.95-4.072l-.355-.354-.214.425c-1.212 2.302-.357 4.391 1.033 5.808-.641-.107-1.069-.32-1.461-.638a.431.431 0 0 0-.5-.035c-.142.07-.213.283-.177.46.499 1.665 1.746 3.01 3.1 3.825-.64 0-1.176-.071-1.71-.425a.505.505 0 0 0-.5.035c-.142.106-.213.284-.142.46.642 1.807 1.89 2.763 3.885 3.01-1.033.603-2.388 1.099-4.49 1.134a.507.507 0 0 0-.464.319c-.071.212 0 .39.143.531C6.454 21.398 9.305 22 12.834 22c6.273 0 11.406-5.56 11.406-12.395v-.106c.784-.39 1.426-1.133 1.747-2.16a.463.463 0 0 0-.107-.425"/>
</svg>
