<svg xmlns="http://www.w3.org/2000/svg" width="32" height="23" viewBox="0 0 32 23">
	<path d="M26.883 16.74a1.58 1.58 0 0 0-.074-.148c-.382-.712-1.111-1.586-2.188-2.622l-.023-.024-.011-.011-.012-.012h-.011c-.489-.483-.798-.807-.928-.973-.237-.316-.29-.637-.16-.961.091-.245.435-.763 1.03-1.554.314-.42.562-.755.745-1.008 1.321-1.82 1.894-2.982 1.718-3.488l-.068-.119c-.046-.07-.164-.136-.355-.195-.191-.06-.436-.07-.733-.03l-3.3.024a.414.414 0 0 0-.228.006l-.15.035-.057.03-.045.036a.517.517 0 0 0-.126.124.822.822 0 0 0-.115.208 19.67 19.67 0 0 1-1.225 2.669c-.283.49-.542.915-.78 1.275-.236.36-.435.625-.595.795-.16.17-.305.306-.435.41-.13.102-.23.146-.298.13a8.126 8.126 0 0 1-.195-.048.779.779 0 0 1-.257-.29 1.336 1.336 0 0 1-.132-.463 5.278 5.278 0 0 1-.04-.48 10.39 10.39 0 0 1 .005-.57c.008-.245.012-.411.012-.498 0-.3.006-.627.017-.979.012-.352.02-.63.029-.836.007-.206.011-.423.011-.653 0-.23-.013-.409-.04-.54a1.893 1.893 0 0 0-.12-.38.634.634 0 0 0-.235-.284 1.299 1.299 0 0 0-.383-.16c-.405-.095-.92-.146-1.547-.154-1.42-.016-2.333.079-2.738.285-.16.086-.305.205-.435.355-.137.174-.156.27-.057.285.458.071.782.241.973.51l.07.142c.053.103.106.285.16.546.053.261.087.55.103.866a9.561 9.561 0 0 1 0 1.483 18.27 18.27 0 0 1-.11.96 1.976 1.976 0 0 1-.291.82.2.2 0 0 1-.058.059.817.817 0 0 1-.309.06c-.107 0-.237-.056-.39-.167a2.788 2.788 0 0 1-.475-.457 6.108 6.108 0 0 1-.555-.812 14.62 14.62 0 0 1-.642-1.234l-.183-.344a30.022 30.022 0 0 1-.47-.967 18.982 18.982 0 0 1-.526-1.228.78.78 0 0 0-.275-.38l-.058-.035a.775.775 0 0 0-.183-.101 1.184 1.184 0 0 0-.263-.077l-3.139.023c-.32 0-.538.076-.653.226l-.046.071a.395.395 0 0 0-.034.19c0 .087.023.194.069.32a39.863 39.863 0 0 0 1.494 3.227 36.594 36.594 0 0 0 1.404 2.503c.397.633.801 1.23 1.214 1.791.412.562.685.922.819 1.08.133.158.238.277.315.356l.286.285c.183.19.453.417.808.682.355.265.748.526 1.18.783a6.25 6.25 0 0 0 1.506.628 5.04 5.04 0 0 0 1.672.196h1.318c.267-.024.47-.11.607-.26l.045-.06c.03-.047.06-.12.086-.22.027-.098.04-.207.04-.326-.008-.34.017-.646.074-.919.058-.273.123-.478.195-.617a1.513 1.513 0 0 1 .442-.522.735.735 0 0 1 .091-.041c.183-.063.399-.002.647.184.249.186.481.415.7.688.217.273.478.58.784.92.305.34.572.592.801.759l.23.142c.152.095.351.182.595.26.244.08.458.1.642.06l2.932-.047c.29 0 .516-.05.676-.149.16-.098.255-.207.286-.326a.95.95 0 0 0 .006-.403 1.53 1.53 0 0 0-.08-.315z"/>
</svg>
